<svg xmlns="http://www.w3.org/2000/svg" viewBox="0 0 329.55 454.39"><defs><style>.cls-1,.cls-2{fill:none;stroke-linecap:round;stroke-linejoin:round;}.cls-1{stroke:#949597;stroke-width:35px;}.cls-2{stroke:#652f8e;stroke-width:38px;}.cls-3{fill:#652f8e;}.cls-4{fill:#949597;}</style></defs><title>Asset 1</title><g id="Layer_2" data-name="Layer 2"><g id="Layer_1-2" data-name="Layer 1"><path class="cls-1" d="M263.32,59.68a144,144,0,1,1-203.65,0,144,144,0,0,1,203.65,0"/><line class="cls-2" x1="161.5" y1="71.5" x2="161.5" y2="251.5"/><path class="cls-3" d="M94.41,411.25A19.79,19.79,0,0,1,80.81,431a45.53,45.53,0,0,1-16.34,2.59,39.86,39.86,0,0,1-15.75-2.81q-6.56-2.81-9.69-7a14.16,14.16,0,0,1-3.12-8.47,6.56,6.56,0,0,1,2-4.81,6.86,6.86,0,0,1,5.06-2,5.91,5.91,0,0,1,4.13,1.31,14.39,14.39,0,0,1,2.75,3.69,18.7,18.7,0,0,0,6.28,6.81q3.66,2.25,10,2.25a14.4,14.4,0,0,0,8.41-2.28q3.28-2.28,3.28-5.22a7.1,7.1,0,0,0-3.41-6.56Q71,406.38,63.16,404.5a92.92,92.92,0,0,1-14.34-4.59A23.61,23.61,0,0,1,40,393.56a14.53,14.53,0,0,1-3.31-9.69,17.09,17.09,0,0,1,3.06-9.69,21,21,0,0,1,9-7.28,34.59,34.59,0,0,1,14.41-2.72,47.36,47.36,0,0,1,11.91,1.38,29.72,29.72,0,0,1,8.81,3.69,18.21,18.21,0,0,1,5.38,5.13,10,10,0,0,1,1.84,5.5,6.35,6.35,0,0,1-2,4.81,7.79,7.79,0,0,1-5.59,1.88,6.85,6.85,0,0,1-4.47-1.5,29.44,29.44,0,0,1-4.22-4.5,15.44,15.44,0,0,0-4.56-4,14.38,14.38,0,0,0-7.12-1.5,14,14,0,0,0-7.69,2q-3.06,2-3.06,4.91a5.31,5.31,0,0,0,2.25,4.41,18.66,18.66,0,0,0,6.06,2.84q3.81,1.13,10.5,2.75a56.15,56.15,0,0,1,13,4.63,21.57,21.57,0,0,1,7.63,6.34A14.07,14.07,0,0,1,94.41,411.25Z"/><path class="cls-3" d="M109.78,365.69h1.88V355.44q0-4.12.22-6.47a9.54,9.54,0,0,1,1.22-4,7.69,7.69,0,0,1,2.88-2.84,8.16,8.16,0,0,1,4.19-1.09,8.43,8.43,0,0,1,5.88,2.44,7.23,7.23,0,0,1,2.22,4,36.05,36.05,0,0,1,.47,6.66v11.63H135a8,8,0,0,1,5.53,1.72,5.67,5.67,0,0,1,1.91,4.41,4.93,4.93,0,0,1-2.72,4.81,17.64,17.64,0,0,1-7.78,1.38h-3.19v31.38a50.91,50.91,0,0,0,.28,6.16,6.27,6.27,0,0,0,1.5,3.5,5.13,5.13,0,0,0,4,1.34,21.2,21.2,0,0,0,4.06-.53,21.14,21.14,0,0,1,4-.53,5.14,5.14,0,0,1,3.72,1.66,5.56,5.56,0,0,1,1.66,4.09q0,4.13-4.5,6.31t-12.94,2.19q-8,0-12.12-2.69a12.47,12.47,0,0,1-5.41-7.44,50.43,50.43,0,0,1-1.28-12.69V378h-2.25a8.12,8.12,0,0,1-5.62-1.75,5.72,5.72,0,0,1-1.94-4.44,5.51,5.51,0,0,1,2-4.41A8.92,8.92,0,0,1,109.78,365.69Z"/><path class="cls-3" d="M154.16,423.19v-74q0-5.12,2.28-7.75a7.74,7.74,0,0,1,6.16-2.62,8.08,8.08,0,0,1,6.25,2.59q2.37,2.59,2.38,7.78v74q0,5.19-2.41,7.78a8.1,8.1,0,0,1-6.22,2.59,7.71,7.71,0,0,1-6.09-2.69Q154.16,428.19,154.16,423.19Z"/><path class="cls-3" d="M232,423.94a52.81,52.81,0,0,1-12,7.22,33.47,33.47,0,0,1-13,2.41A24.58,24.58,0,0,1,195.5,431a19,19,0,0,1-7.66-7,18.24,18.24,0,0,1-2.69-9.62,17.23,17.23,0,0,1,4.44-11.94,22.19,22.19,0,0,1,12.19-6.62q1.62-.37,8.06-1.69t11-2.41q4.59-1.09,10-2.66-.31-6.75-2.72-9.91t-10-3.16q-6.5,0-9.78,1.81a15.89,15.89,0,0,0-5.62,5.44,57.78,57.78,0,0,1-3.31,4.78q-1,1.16-4.16,1.16a7.27,7.27,0,0,1-5-1.84,6,6,0,0,1-2.09-4.72,14.43,14.43,0,0,1,3.19-8.75q3.19-4.25,9.94-7t16.81-2.75q11.25,0,17.69,2.66a16.45,16.45,0,0,1,9.09,8.41q2.66,5.75,2.66,15.25,0,6,0,10.19t-.09,9.31a34.3,34.3,0,0,0,1.59,10,31.67,31.67,0,0,1,1.59,6.72,6.29,6.29,0,0,1-2.47,4.78,8.28,8.28,0,0,1-5.59,2.16,7.55,7.55,0,0,1-5.19-2.47A36.58,36.58,0,0,1,232,423.94Zm-1.12-24.69a85.81,85.81,0,0,1-10.91,2.91q-7.16,1.53-9.91,2.25a13.48,13.48,0,0,0-5.25,2.81,7.21,7.21,0,0,0-2.5,5.84,8.65,8.65,0,0,0,2.94,6.59,10.87,10.87,0,0,0,7.69,2.72,20,20,0,0,0,9.34-2.22,14.81,14.81,0,0,0,6.28-5.72q2.31-3.87,2.31-12.75Z"/><path class="cls-3" d="M279,348.56v26.06A39.6,39.6,0,0,1,288.8,367a26.14,26.14,0,0,1,12.38-2.66,27.4,27.4,0,0,1,14.91,4A26.48,26.48,0,0,1,326,380a43,43,0,0,1,3.53,18.16,48.67,48.67,0,0,1-2,14.22,33.75,33.75,0,0,1-5.72,11.22,25.82,25.82,0,0,1-9.09,7.34A26.63,26.63,0,0,1,301,433.56a28.29,28.29,0,0,1-7.41-.94,21.7,21.7,0,0,1-5.91-2.47,26.66,26.66,0,0,1-4.16-3.16q-1.72-1.62-4.53-4.87v1.69q0,4.81-2.31,7.28a7.7,7.7,0,0,1-5.87,2.47,7.29,7.29,0,0,1-5.78-2.47q-2.16-2.47-2.16-7.28v-74.5q0-5.19,2.09-7.84a7,7,0,0,1,5.84-2.66,7.47,7.47,0,0,1,6.06,2.53Q279,343.88,279,348.56Zm.81,50.69q0,10.19,4.66,15.66a15.27,15.27,0,0,0,12.22,5.47q6.44,0,11.09-5.59t4.66-16a31.45,31.45,0,0,0-1.94-11.62,16.89,16.89,0,0,0-5.5-7.53,13.53,13.53,0,0,0-8.31-2.66,14.83,14.83,0,0,0-8.69,2.66,17.65,17.65,0,0,0-6,7.69A29.87,29.87,0,0,0,279.8,399.25Z"/><path class="cls-4" d="M286,454.39a2.43,2.43,0,0,1-1.67-.62,2.22,2.22,0,0,1-.7-1.75,2.27,2.27,0,0,1,.67-1.64,2.22,2.22,0,0,1,1.66-.69,2.32,2.32,0,0,1,1.68.68,2.41,2.41,0,0,1,0,3.39A2.35,2.35,0,0,1,286,454.39Z"/><path class="cls-4" d="M308.49,449.11a3.68,3.68,0,0,1-.48,1.7,5.87,5.87,0,0,1-1.45,1.73,7.51,7.51,0,0,1-2.46,1.32,10.45,10.45,0,0,1-3.34.5,8.16,8.16,0,0,1-6.17-2.3,8.53,8.53,0,0,1-2.22-6.18,10.17,10.17,0,0,1,1-4.64,7.29,7.29,0,0,1,2.94-3.12,10,10,0,0,1,7.63-.62,8,8,0,0,1,2.34,1.25,6,6,0,0,1,1.47,1.63,3.24,3.24,0,0,1,.51,1.62,1.7,1.7,0,0,1-.57,1.3,2,2,0,0,1-1.38.53,1.39,1.39,0,0,1-.88-.27,4.3,4.3,0,0,1-.79-.88,6.49,6.49,0,0,0-1.63-1.78,4,4,0,0,0-5.21.88,6.39,6.39,0,0,0-1.16,4,7.79,7.79,0,0,0,.3,2.21,5,5,0,0,0,.86,1.72,3.67,3.67,0,0,0,1.36,1.08,4.13,4.13,0,0,0,1.75.37,3.94,3.94,0,0,0,2.2-.59,5.19,5.19,0,0,0,1.62-1.81,4.16,4.16,0,0,1,.84-1.12,1.6,1.6,0,0,1,1.11-.41,1.65,1.65,0,0,1,1.3.59A1.9,1.9,0,0,1,308.49,449.11Z"/><path class="cls-4" d="M327.51,449.11a3.68,3.68,0,0,1-.48,1.7,5.87,5.87,0,0,1-1.45,1.73,7.51,7.51,0,0,1-2.46,1.32,10.45,10.45,0,0,1-3.34.5,8.16,8.16,0,0,1-6.17-2.3,8.53,8.53,0,0,1-2.22-6.18,10.17,10.17,0,0,1,1-4.64,7.29,7.29,0,0,1,2.94-3.12,10,10,0,0,1,7.63-.62,8,8,0,0,1,2.34,1.25,6,6,0,0,1,1.47,1.63,3.24,3.24,0,0,1,.51,1.62,1.7,1.7,0,0,1-.57,1.3,2,2,0,0,1-1.38.53,1.39,1.39,0,0,1-.88-.27,4.3,4.3,0,0,1-.79-.88,6.49,6.49,0,0,0-1.63-1.78,4,4,0,0,0-5.21.88,6.39,6.39,0,0,0-1.16,4A7.79,7.79,0,0,0,316,448a5,5,0,0,0,.86,1.72,3.67,3.67,0,0,0,1.36,1.08,4.13,4.13,0,0,0,1.75.37,3.94,3.94,0,0,0,2.2-.59,5.19,5.19,0,0,0,1.62-1.81,4.16,4.16,0,0,1,.84-1.12,1.6,1.6,0,0,1,1.11-.41,1.65,1.65,0,0,1,1.3.59A1.9,1.9,0,0,1,327.51,449.11Z"/></g></g></svg>