<svg id="Layer_1" data-name="Layer 1" xmlns="http://www.w3.org/2000/svg" xmlns:xlink="http://www.w3.org/1999/xlink" viewBox="0 0 505.19 161.5"><defs><style>.cls-1,.cls-2,.cls-3{fill:none;}.cls-2{stroke:#949597;stroke-width:17.5px;}.cls-2,.cls-3{stroke-linecap:round;stroke-linejoin:round;}.cls-3{stroke:#652f8e;stroke-width:19px;}.cls-4{clip-path:url(#clip-path);}.cls-5{fill:#652f8e;}.cls-6{fill:#949597;}</style><clipPath id="clip-path" transform="translate(-139.08 -215.25)"><rect class="cls-1" x="246.83" y="204" width="457.92" height="184.5"/></clipPath></defs><title>stlab-logo-long</title><path class="cls-2" d="M270.74,245.09a72,72,0,1,1-101.82,0,72,72,0,0,1,101.82,0" transform="translate(-139.08 -215.25)"/><line class="cls-3" x1="80.75" y1="35.75" x2="80.75" y2="125.75"/><g class="cls-4"><g class="cls-4"><path class="cls-5" d="M374.74,324.7a22.69,22.69,0,0,1-15.58,22.6q-7.7,3-18.73,3a45.68,45.68,0,0,1-18.05-3.22q-7.52-3.22-11.1-8.06a16.23,16.23,0,0,1-3.58-9.71,7.52,7.52,0,0,1,2.29-5.52,7.87,7.87,0,0,1,5.8-2.29,6.77,6.77,0,0,1,4.73,1.5,16.48,16.48,0,0,1,3.15,4.23,21.42,21.42,0,0,0,7.2,7.81q4.19,2.58,11.43,2.58a16.51,16.51,0,0,0,9.63-2.62q3.76-2.61,3.76-6,0-5.16-3.9-7.52T338.92,317a106.58,106.58,0,0,1-16.44-5.27,27.06,27.06,0,0,1-10.14-7.27,16.66,16.66,0,0,1-3.8-11.1,19.58,19.58,0,0,1,3.51-11.1,24.07,24.07,0,0,1,10.35-8.35,39.64,39.64,0,0,1,16.51-3.12,54.29,54.29,0,0,1,13.65,1.58,34.07,34.07,0,0,1,10.1,4.23,20.88,20.88,0,0,1,6.16,5.87,11.5,11.5,0,0,1,2.11,6.3,7.28,7.28,0,0,1-2.26,5.52,8.93,8.93,0,0,1-6.41,2.15,7.85,7.85,0,0,1-5.12-1.72,33.73,33.73,0,0,1-4.84-5.16,17.69,17.69,0,0,0-5.23-4.58,16.48,16.48,0,0,0-8.17-1.72,16,16,0,0,0-8.81,2.26q-3.51,2.26-3.51,5.62a6.09,6.09,0,0,0,2.58,5.05,21.39,21.39,0,0,0,6.95,3.26q4.37,1.29,12,3.15a64.34,64.34,0,0,1,14.86,5.3,24.73,24.73,0,0,1,8.74,7.27A16.12,16.12,0,0,1,374.74,324.7Z" transform="translate(-139.08 -215.25)"/><path class="cls-5" d="M392.37,272.48h2.15V260.73q0-4.73.25-7.41a10.94,10.94,0,0,1,1.4-4.62,8.82,8.82,0,0,1,3.3-3.26,9.35,9.35,0,0,1,4.8-1.25A9.66,9.66,0,0,1,411,247a8.29,8.29,0,0,1,2.54,4.55,41.31,41.31,0,0,1,.54,7.63v13.32h7.16q4.15,0,6.34,2a6.5,6.5,0,0,1,2.18,5.05,5.65,5.65,0,0,1-3.12,5.52q-3.12,1.58-8.92,1.58h-3.65v36a58.37,58.37,0,0,0,.32,7.06,7.18,7.18,0,0,0,1.72,4q1.4,1.54,4.55,1.54a24.31,24.31,0,0,0,4.66-.61,24.21,24.21,0,0,1,4.58-.61,5.89,5.89,0,0,1,4.26,1.9,6.37,6.37,0,0,1,1.9,4.69q0,4.73-5.16,7.23t-14.83,2.51q-9.17,0-13.9-3.08a14.29,14.29,0,0,1-6.2-8.53,57.8,57.8,0,0,1-1.47-14.54V286.59h-2.58q-4.23,0-6.45-2a6.55,6.55,0,0,1-2.22-5.09,6.32,6.32,0,0,1,2.33-5.05Q387.92,272.48,392.37,272.48Z" transform="translate(-139.08 -215.25)"/><path class="cls-5" d="M443.23,338.39V253.57q0-5.87,2.62-8.88a8.87,8.87,0,0,1,7.06-3,9.26,9.26,0,0,1,7.16,3q2.72,3,2.72,8.92v84.82q0,5.95-2.76,8.92a9.29,9.29,0,0,1-7.13,3,8.83,8.83,0,0,1-7-3.08Q443.23,344.12,443.23,338.39Z" transform="translate(-139.08 -215.25)"/><path class="cls-5" d="M532.41,339.25a60.53,60.53,0,0,1-13.72,8.27,38.37,38.37,0,0,1-14.86,2.76,28.18,28.18,0,0,1-13.22-3,21.75,21.75,0,0,1-8.78-8.06,20.91,20.91,0,0,1-3.08-11,19.75,19.75,0,0,1,5.09-13.68q5.09-5.66,14-7.59,1.86-.43,9.24-1.93t12.64-2.76q5.26-1.25,11.43-3-.36-7.74-3.12-11.35t-11.43-3.62q-7.45,0-11.21,2.08a18.21,18.21,0,0,0-6.45,6.23,66.38,66.38,0,0,1-3.8,5.48q-1.11,1.33-4.76,1.33a8.33,8.33,0,0,1-5.7-2.11,6.88,6.88,0,0,1-2.4-5.41,16.55,16.55,0,0,1,3.65-10q3.65-4.87,11.39-8t19.27-3.15q12.89,0,20.27,3a18.86,18.86,0,0,1,10.42,9.64q3,6.59,3,17.48,0,6.88,0,11.68t-.11,10.67a39.32,39.32,0,0,0,1.83,11.5q1.83,6,1.83,7.7a7.21,7.21,0,0,1-2.83,5.48,9.48,9.48,0,0,1-6.41,2.47,8.65,8.65,0,0,1-5.95-2.83A41.91,41.91,0,0,1,532.41,339.25Zm-1.29-28.3a98.4,98.4,0,0,1-12.5,3.33q-8.2,1.76-11.35,2.58a15.44,15.44,0,0,0-6,3.22,8.26,8.26,0,0,0-2.87,6.7,9.92,9.92,0,0,0,3.37,7.56,12.45,12.45,0,0,0,8.81,3.12,22.92,22.92,0,0,0,10.71-2.54,17,17,0,0,0,7.2-6.55q2.65-4.44,2.65-14.61Z" transform="translate(-139.08 -215.25)"/><path class="cls-5" d="M586.31,252.85v29.87a45.4,45.4,0,0,1,11.25-8.78q5.73-3,14.18-3a31.4,31.4,0,0,1,17.08,4.62,30.36,30.36,0,0,1,11.39,13.4q4,8.78,4,20.81A55.8,55.8,0,0,1,642,326a38.69,38.69,0,0,1-6.55,12.86A29.61,29.61,0,0,1,625,347.3a30.53,30.53,0,0,1-13.5,3A32.45,32.45,0,0,1,603,349.2a24.88,24.88,0,0,1-6.77-2.83,30.57,30.57,0,0,1-4.76-3.62q-2-1.86-5.19-5.59v1.93q0,5.52-2.65,8.35a8.83,8.83,0,0,1-6.73,2.83,8.35,8.35,0,0,1-6.63-2.83q-2.47-2.83-2.47-8.35V253.71q0-5.95,2.4-9a8,8,0,0,1,6.7-3,8.57,8.57,0,0,1,6.95,2.9Q586.31,247.48,586.31,252.85Zm.93,58.1q0,11.68,5.34,17.94a17.5,17.5,0,0,0,14,6.27q7.38,0,12.72-6.41t5.34-18.37a36.06,36.06,0,0,0-2.22-13.32,19.37,19.37,0,0,0-6.3-8.63,15.51,15.51,0,0,0-9.53-3,17,17,0,0,0-10,3,20.22,20.22,0,0,0-6.88,8.81A34.22,34.22,0,0,0,587.24,310.95Z" transform="translate(-139.08 -215.25)"/><path class="cls-6" d="M588.12,374a3,3,0,0,1-2.09-.78,2.77,2.77,0,0,1-.88-2.19A2.83,2.83,0,0,1,586,369a2.78,2.78,0,0,1,2.07-.86,2.89,2.89,0,0,1,2.1.85,3,3,0,0,1,0,4.24A2.94,2.94,0,0,1,588.12,374Z" transform="translate(-139.08 -215.25)"/><path class="cls-6" d="M616.23,367.38a4.61,4.61,0,0,1-.6,2.13,7.33,7.33,0,0,1-1.82,2.16,9.39,9.39,0,0,1-3.08,1.65,13,13,0,0,1-4.18.63,10.21,10.21,0,0,1-7.72-2.88,10.67,10.67,0,0,1-2.77-7.73,12.73,12.73,0,0,1,1.27-5.8,9.12,9.12,0,0,1,3.67-3.9,12.48,12.48,0,0,1,9.54-.77,9.93,9.93,0,0,1,2.93,1.56,7.5,7.5,0,0,1,1.84,2,4,4,0,0,1,.64,2,2.13,2.13,0,0,1-.71,1.62,2.45,2.45,0,0,1-1.73.66,1.74,1.74,0,0,1-1.1-.34,5.4,5.4,0,0,1-1-1.1,8.09,8.09,0,0,0-2-2.23,5,5,0,0,0-6.52,1.1,8,8,0,0,0-1.45,5.05,9.77,9.77,0,0,0,.37,2.76,6.25,6.25,0,0,0,1.08,2.15,4.59,4.59,0,0,0,1.7,1.35,5.17,5.17,0,0,0,2.19.46,4.93,4.93,0,0,0,2.75-.74,6.5,6.5,0,0,0,2-2.27,5.23,5.23,0,0,1,1.06-1.41,2,2,0,0,1,1.39-.51,2.06,2.06,0,0,1,1.62.74A2.38,2.38,0,0,1,616.23,367.38Z" transform="translate(-139.08 -215.25)"/><path class="cls-6" d="M640,367.38a4.61,4.61,0,0,1-.6,2.13,7.33,7.33,0,0,1-1.82,2.16,9.39,9.39,0,0,1-3.08,1.65,13,13,0,0,1-4.18.63,10.21,10.21,0,0,1-7.72-2.88,10.67,10.67,0,0,1-2.77-7.73,12.73,12.73,0,0,1,1.27-5.8,9.12,9.12,0,0,1,3.67-3.9,12.48,12.48,0,0,1,9.54-.77,9.93,9.93,0,0,1,2.93,1.56,7.5,7.5,0,0,1,1.84,2,4,4,0,0,1,.64,2,2.13,2.13,0,0,1-.71,1.62,2.45,2.45,0,0,1-1.73.66,1.74,1.74,0,0,1-1.1-.34,5.4,5.4,0,0,1-1-1.1,8.09,8.09,0,0,0-2-2.23,5,5,0,0,0-6.52,1.1,8,8,0,0,0-1.45,5.05,9.77,9.77,0,0,0,.37,2.76,6.25,6.25,0,0,0,1.08,2.15,4.59,4.59,0,0,0,1.7,1.35,5.17,5.17,0,0,0,2.19.46,4.93,4.93,0,0,0,2.75-.74,6.5,6.5,0,0,0,2-2.27,5.23,5.23,0,0,1,1.06-1.41,2,2,0,0,1,1.39-.51,2.06,2.06,0,0,1,1.62.74A2.38,2.38,0,0,1,640,367.38Z" transform="translate(-139.08 -215.25)"/></g></g></svg>